<svg width="32" height="36" viewBox="0 0 32 36" fill="none" xmlns="http://www.w3.org/2000/svg">
<path d="M30 16.7475H26.9538C26.7167 13.8894 25.5919 11.2138 23.7741 9.1842C21.9562 7.15458 19.5599 5.89871 17 5.63409V2.23296C17 1.93684 16.8946 1.65285 16.7071 1.44347C16.5196 1.23409 16.2652 1.11646 16 1.11646C15.7348 1.11646 15.4804 1.23409 15.2929 1.44347C15.1054 1.65285 15 1.93684 15 2.23296V5.63409C12.4401 5.89871 10.0438 7.15458 8.22592 9.1842C6.40808 11.2138 5.28325 13.8894 5.04625 16.7475H2C1.73478 16.7475 1.48043 16.8651 1.29289 17.0745C1.10536 17.2839 1 17.5678 1 17.864C1 18.1601 1.10536 18.4441 1.29289 18.6534C1.48043 18.8628 1.73478 18.9805 2 18.9805H5.04625C5.28325 21.8386 6.40808 24.5141 8.22592 26.5437C10.0438 28.5733 12.4401 29.8292 15 30.0938V33.495C15 33.7911 15.1054 34.0751 15.2929 34.2845C15.4804 34.4938 15.7348 34.6115 16 34.6115C16.2652 34.6115 16.5196 34.4938 16.7071 34.2845C16.8946 34.0751 17 33.7911 17 33.495V30.0938C19.5599 29.8292 21.9562 28.5733 23.7741 26.5437C25.5919 24.5141 26.7167 21.8386 26.9538 18.9805H30C30.2652 18.9805 30.5196 18.8628 30.7071 18.6534C30.8946 18.4441 31 18.1601 31 17.864C31 17.5678 30.8946 17.2839 30.7071 17.0745C30.5196 16.8651 30.2652 16.7475 30 16.7475ZM16 27.9125C14.22 27.9125 12.4799 27.3231 10.9999 26.219C9.51982 25.1148 8.36627 23.5455 7.68508 21.7094C7.0039 19.8732 6.82567 17.8528 7.17293 15.9036C7.5202 13.9544 8.37737 12.1639 9.63604 10.7586C10.8947 9.35329 12.4984 8.39626 14.2442 8.00854C15.99 7.62081 17.7996 7.81981 19.4442 8.58035C21.0887 9.3409 22.4943 10.6288 23.4832 12.2813C24.4722 13.9338 25 15.8766 25 17.864C24.9974 20.5281 24.0483 23.0822 22.361 24.9661C20.6738 26.8499 18.3861 27.9095 16 27.9125ZM16 12.2815C15.0111 12.2815 14.0444 12.6089 13.2221 13.2223C12.3999 13.8357 11.759 14.7076 11.3806 15.7276C11.0022 16.7477 10.9031 17.8702 11.0961 18.9531C11.289 20.036 11.7652 21.0307 12.4645 21.8114C13.1637 22.5921 14.0546 23.1238 15.0245 23.3392C15.9945 23.5546 16.9998 23.444 17.9134 23.0215C18.827 22.599 19.6079 21.8835 20.1573 20.9654C20.7068 20.0474 21 18.9681 21 17.864C21 16.3834 20.4732 14.9635 19.5355 13.9165C18.5979 12.8696 17.3261 12.2815 16 12.2815ZM16 21.2135C15.4067 21.2135 14.8266 21.017 14.3333 20.649C13.8399 20.2809 13.4554 19.7578 13.2284 19.1458C13.0013 18.5337 12.9419 17.8602 13.0576 17.2105C13.1734 16.5608 13.4591 15.9639 13.8787 15.4955C14.2982 15.0271 14.8328 14.7081 15.4147 14.5788C15.9967 14.4496 16.5999 14.5159 17.1481 14.7694C17.6962 15.0229 18.1648 15.4523 18.4944 16.0031C18.8241 16.5539 19 17.2015 19 17.864C19 18.7523 18.6839 19.6043 18.1213 20.2324C17.5587 20.8606 16.7956 21.2135 16 21.2135Z" fill="white"/>
</svg>
