<svg width="32" height="36" viewBox="0 0 32 36" fill="none" xmlns="http://www.w3.org/2000/svg">
<path d="M25 6.69896H17V2.23296C17 1.93684 16.8946 1.65285 16.7071 1.44347C16.5196 1.23409 16.2652 1.11646 16 1.11646C15.7348 1.11646 15.4804 1.23409 15.2929 1.44347C15.1054 1.65285 15 1.93684 15 2.23296V6.69896H7C5.93913 6.69896 4.92172 7.16948 4.17157 8.00702C3.42143 8.84456 3 9.9805 3 11.165V26.796C3 27.9804 3.42143 29.1164 4.17157 29.9539C4.92172 30.7914 5.93913 31.262 7 31.262H25C26.0609 31.262 27.0783 30.7914 27.8284 29.9539C28.5786 29.1164 29 27.9804 29 26.796V11.165C29 9.9805 28.5786 8.84456 27.8284 8.00702C27.0783 7.16948 26.0609 6.69896 25 6.69896ZM27 26.796C27 27.3882 26.7893 27.9562 26.4142 28.3749C26.0391 28.7937 25.5304 29.029 25 29.029H7C6.46957 29.029 5.96086 28.7937 5.58579 28.3749C5.21071 27.9562 5 27.3882 5 26.796V11.165C5 10.5727 5.21071 10.0048 5.58579 9.58599C5.96086 9.16722 6.46957 8.93196 7 8.93196H25C25.5304 8.93196 26.0391 9.16722 26.4142 9.58599C26.7893 10.0048 27 10.5727 27 11.165V26.796ZM20.5 18.9805H11.5C10.5717 18.9805 9.6815 19.3922 9.02513 20.125C8.36875 20.8579 8 21.8518 8 22.8882C8 23.9246 8.36875 24.9186 9.02513 25.6514C9.6815 26.3843 10.5717 26.796 11.5 26.796H20.5C21.4283 26.796 22.3185 26.3843 22.9749 25.6514C23.6313 24.9186 24 23.9246 24 22.8882C24 21.8518 23.6313 20.8579 22.9749 20.125C22.3185 19.3922 21.4283 18.9805 20.5 18.9805ZM17.5 21.2135V24.563H14.5V21.2135H17.5ZM10 22.8882C10 22.444 10.158 22.0181 10.4393 21.704C10.7206 21.3899 11.1022 21.2135 11.5 21.2135H12.5V24.563H11.5C11.1022 24.563 10.7206 24.3865 10.4393 24.0724C10.158 23.7584 10 23.3324 10 22.8882ZM20.5 24.563H19.5V21.2135H20.5C20.8978 21.2135 21.2794 21.3899 21.5607 21.704C21.842 22.0181 22 22.444 22 22.8882C22 23.3324 21.842 23.7584 21.5607 24.0724C21.2794 24.3865 20.8978 24.563 20.5 24.563ZM9 15.0727C9 14.7415 9.08797 14.4177 9.2528 14.1423C9.41762 13.8669 9.65189 13.6522 9.92597 13.5254C10.2001 13.3987 10.5017 13.3655 10.7926 13.4301C11.0836 13.4948 11.3509 13.6543 11.5607 13.8885C11.7704 14.1227 11.9133 14.4211 11.9712 14.746C12.0291 15.0709 11.9994 15.4076 11.8858 15.7136C11.7723 16.0196 11.58 16.2812 11.3334 16.4652C11.0867 16.6492 10.7967 16.7475 10.5 16.7475C10.1022 16.7475 9.72064 16.571 9.43934 16.2569C9.15804 15.9429 9 15.5169 9 15.0727ZM20 15.0727C20 14.7415 20.088 14.4177 20.2528 14.1423C20.4176 13.8669 20.6519 13.6522 20.926 13.5254C21.2001 13.3987 21.5017 13.3655 21.7926 13.4301C22.0836 13.4948 22.3509 13.6543 22.5607 13.8885C22.7704 14.1227 22.9133 14.4211 22.9712 14.746C23.0291 15.0709 22.9993 15.4076 22.8858 15.7136C22.7723 16.0196 22.58 16.2812 22.3334 16.4652C22.0867 16.6492 21.7967 16.7475 21.5 16.7475C21.1022 16.7475 20.7206 16.571 20.4393 16.2569C20.158 15.9429 20 15.5169 20 15.0727Z" fill="white"/>
</svg>
