<svg width="32" height="36" viewBox="0 0 32 36" fill="none" xmlns="http://www.w3.org/2000/svg">
<path d="M21 15.631C21 15.9271 20.8946 16.2111 20.7071 16.4205C20.5196 16.6299 20.2652 16.7475 20 16.7475H12C11.7348 16.7475 11.4804 16.6299 11.2929 16.4205C11.1054 16.2111 11 15.9271 11 15.631C11 15.3349 11.1054 15.0509 11.2929 14.8415C11.4804 14.6322 11.7348 14.5145 12 14.5145H20C20.2652 14.5145 20.5196 14.6322 20.7071 14.8415C20.8946 15.0509 21 15.3349 21 15.631ZM20 18.9805H12C11.7348 18.9805 11.4804 19.0982 11.2929 19.3075C11.1054 19.5169 11 19.8009 11 20.097C11 20.3931 11.1054 20.6771 11.2929 20.8865C11.4804 21.0959 11.7348 21.2135 12 21.2135H20C20.2652 21.2135 20.5196 21.0959 20.7071 20.8865C20.8946 20.6771 21 20.3931 21 20.097C21 19.8009 20.8946 19.5169 20.7071 19.3075C20.5196 19.0982 20.2652 18.9805 20 18.9805ZM29 17.864C29.0005 20.3699 28.4199 22.8333 27.3147 25.0143C26.2095 27.1953 24.6174 29.0197 22.6934 30.31C20.7693 31.6002 18.5788 32.3123 16.3352 32.3769C14.0915 32.4415 11.8711 31.8564 9.89 30.6787L5.63375 32.2627C5.28136 32.3939 4.9032 32.4129 4.54166 32.3177C4.18012 32.2224 3.84948 32.0166 3.58681 31.7233C3.32414 31.4301 3.13982 31.0609 3.0545 30.6573C2.96918 30.2536 2.98623 29.8314 3.10375 29.4379L4.5225 24.6858C3.59519 22.7393 3.07725 20.5824 3.008 18.379C2.93875 16.1755 3.32001 13.9834 4.12284 11.9691C4.92567 9.95473 6.12897 8.17105 7.6414 6.75343C9.15383 5.33582 10.9356 4.32154 12.8516 3.78757C14.7675 3.2536 16.7672 3.21398 18.699 3.67172C20.6307 4.12946 22.4436 5.07253 24.0001 6.42934C25.5566 7.78615 26.8158 9.52105 27.6822 11.5023C28.5485 13.4836 28.9992 15.6592 29 17.864ZM27 17.864C26.9995 15.9801 26.6109 14.1216 25.8641 12.4322C25.1174 10.7428 24.0325 9.26785 22.6935 8.12148C21.3545 6.97511 19.7973 6.18804 18.1422 5.82115C16.4872 5.45426 14.7787 5.51739 13.149 6.00567C11.5194 6.49394 10.0121 7.39426 8.74394 8.63697C7.47577 9.87968 6.48065 11.4315 5.83558 13.1723C5.1905 14.9131 4.91277 16.7963 5.02387 18.6761C5.13496 20.556 5.63191 22.3821 6.47625 24.0131C6.54712 24.1501 6.59112 24.3023 6.60534 24.4596C6.61956 24.617 6.60368 24.7759 6.55875 24.9259L5 30.1455L9.675 28.4052C9.77683 28.3664 9.88367 28.3466 9.99125 28.3466C10.1669 28.3469 10.3393 28.3989 10.4912 28.4973C12.1635 29.5775 14.0611 30.147 15.9931 30.1483C17.925 30.1497 19.8232 29.5829 21.4967 28.5051C23.1702 27.4272 24.5599 25.8762 25.526 24.0082C26.492 22.1402 27.0004 20.0211 27 17.864Z" fill="white"/>
</svg>
