<svg width="108" height="108" viewBox="0 0 108 108" fill="none" xmlns="http://www.w3.org/2000/svg">
<path d="M69.1875 33.75C71.5238 33.75 73.8076 33.0572 75.7502 31.7592C77.6927 30.4613 79.2068 28.6164 80.1008 26.458C80.9949 24.2995 81.2288 21.9244 80.773 19.633C80.3172 17.3416 79.1922 15.2368 77.5402 13.5848C75.8882 11.9328 73.7834 10.8078 71.492 10.352C69.2006 9.89619 66.8255 10.1301 64.6671 11.0242C62.5086 11.9182 60.6637 13.4323 59.3658 15.3748C58.0678 17.3174 57.375 19.6012 57.375 21.9375C57.375 25.0704 58.6195 28.0749 60.8348 30.2902C63.0501 32.5055 66.0546 33.75 69.1875 33.75ZM69.1875 16.875C70.1888 16.875 71.1676 17.1719 72.0001 17.7282C72.8326 18.2845 73.4815 19.0751 73.8646 20.0002C74.2478 20.9252 74.3481 21.9431 74.1527 22.9251C73.9574 23.9072 73.4752 24.8092 72.7672 25.5172C72.0592 26.2252 71.1572 26.7074 70.1751 26.9027C69.1931 27.0981 68.1752 26.9978 67.2502 26.6146C66.3251 26.2315 65.5345 25.5826 64.9782 24.7501C64.4219 23.9176 64.125 22.9388 64.125 21.9375C64.125 20.5948 64.6584 19.3072 65.6078 18.3578C66.5572 17.4084 67.8448 16.875 69.1875 16.875ZM107.528 82.6538L84.51 43.8075C83.9164 42.7955 83.0673 41.9573 82.0477 41.3769C81.0282 40.7964 79.874 40.494 78.7008 40.5C77.5281 40.4939 76.3745 40.7963 75.3556 41.3768C74.3367 41.9573 73.4884 42.7956 72.8958 43.8075L61.8595 62.4375L42.9427 30.3328C42.3466 29.3197 41.4963 28.4799 40.4759 27.8964C39.4555 27.3128 38.3004 27.0059 37.125 27.0059C35.9496 27.0059 34.7945 27.3128 33.7741 27.8964C32.7537 28.4799 31.9034 29.3197 31.3073 30.3328L0.468284 82.6622C0.16642 83.1747 0.00536471 83.7579 0.00143183 84.3527C-0.00250105 84.9475 0.150828 85.5328 0.445888 86.0492C0.740948 86.5657 1.16726 86.995 1.68164 87.2937C2.19602 87.5923 2.7802 87.7498 3.375 87.75H104.625C105.221 87.7499 105.806 87.5921 106.321 87.2927C106.836 86.9933 107.262 86.5629 107.557 86.0453C107.852 85.5277 108.004 84.9412 107.999 84.3455C107.994 83.7498 107.831 83.1662 107.528 82.6538ZM37.125 33.75L47.0686 50.625H27.1814L37.125 33.75ZM9.28125 81L23.2031 57.375H51.0469L58.9528 70.7906L64.9688 81H9.28125ZM72.803 81L65.7745 69.0694L78.7008 47.25L98.7188 81H72.803Z" fill="white"/>
</svg>
