<svg width="108" height="108" viewBox="0 0 108 108" fill="none" xmlns="http://www.w3.org/2000/svg">
<g clip-path="url(#clip0_26_282)">
<path d="M94.5 40.8375V40.5C94.4933 34.2363 92.0021 28.2311 87.573 23.802C83.1439 19.3729 77.1387 16.8817 70.875 16.875H67.5C65.7098 16.875 63.9929 17.5862 62.727 18.852C61.4612 20.1179 60.75 21.8348 60.75 23.625V74.25H54V30.375C54 29.4799 53.6444 28.6215 53.0115 27.9885C52.3785 27.3556 51.5201 27 50.625 27H6.75C4.95979 27 3.2429 27.7112 1.97703 28.977C0.711159 30.2429 0 31.9598 0 33.75L0 77.625C0.00308238 80.3658 0.840355 83.0408 2.4005 85.2943C3.96065 87.5478 6.16976 89.273 8.73413 90.2406C11.2985 91.2082 14.0966 91.3723 16.7565 90.7111C19.4165 90.05 21.8121 88.5949 23.625 86.5392C25.2455 88.3801 27.3368 89.7448 29.6744 90.4867C32.012 91.2286 34.5076 91.3197 36.893 90.7502C39.2785 90.1808 41.4638 88.9722 43.2142 87.2544C44.9646 85.5366 46.2139 83.3744 46.8281 81H81.4219C82.238 84.1876 84.1903 86.9675 86.9117 88.817C89.6331 90.6666 92.9364 91.4585 96.2007 91.044C99.4649 90.6295 102.465 89.0371 104.638 86.566C106.811 84.095 108.006 80.9155 108 77.625V57.375C107.995 53.4863 106.65 49.7181 104.191 46.7056C101.732 43.6932 98.3091 41.6207 94.5 40.8375ZM67.5 23.625H70.875C75.3505 23.625 79.6428 25.4029 82.8074 28.5676C85.9721 31.7322 87.75 36.0245 87.75 40.5V43.875C87.75 44.7701 88.1056 45.6285 88.7385 46.2615C89.3714 46.8944 90.2299 47.25 91.125 47.25C93.8103 47.25 96.3857 48.3167 98.2845 50.2155C100.183 52.1143 101.25 54.6897 101.25 57.375V65.9433C99.2009 64.7496 96.8714 64.1221 94.5 64.125C91.507 64.1278 88.5996 65.1233 86.233 66.9555C83.8663 68.7877 82.1743 71.3532 81.4219 74.25H67.5V23.625ZM47.25 33.75V74.25H46.8281C46.2139 71.8756 44.9646 69.7134 43.2142 67.9956C41.4638 66.2778 39.2785 65.0692 36.893 64.4998C34.5076 63.9303 32.012 64.0214 29.6744 64.7633C27.3368 65.5052 25.2455 66.8699 23.625 68.7108C21.5687 66.3654 18.7616 64.807 15.6836 64.3022C12.6055 63.7974 9.4477 64.3775 6.75 65.9433V33.75H47.25ZM13.5 84.375C12.165 84.375 10.8599 83.9791 9.7499 83.2374C8.63987 82.4957 7.7747 81.4415 7.26381 80.2081C6.75292 78.9747 6.61925 77.6175 6.8797 76.3081C7.14015 74.9988 7.78302 73.796 8.72703 72.852C9.67103 71.908 10.8738 71.2651 12.1831 71.0047C13.4925 70.7442 14.8497 70.8779 16.0831 71.3888C17.3165 71.8997 18.3707 72.7649 19.1124 73.8749C19.8541 74.9849 20.25 76.29 20.25 77.625C20.25 79.4152 19.5388 81.1321 18.273 82.398C17.0071 83.6638 15.2902 84.375 13.5 84.375ZM33.75 84.375C32.415 84.375 31.1099 83.9791 29.9999 83.2374C28.8899 82.4957 28.0247 81.4415 27.5138 80.2081C27.0029 78.9747 26.8692 77.6175 27.1297 76.3081C27.3901 74.9988 28.033 73.796 28.977 72.852C29.921 71.908 31.1238 71.2651 32.4331 71.0047C33.7425 70.7442 35.0997 70.8779 36.3331 71.3888C37.5665 71.8997 38.6207 72.7649 39.3624 73.8749C40.1041 74.9849 40.5 76.29 40.5 77.625C40.5 79.4152 39.7888 81.1321 38.523 82.398C37.2571 83.6638 35.5402 84.375 33.75 84.375ZM94.5 84.375C93.165 84.375 91.8599 83.9791 90.7499 83.2374C89.6399 82.4957 88.7747 81.4415 88.2638 80.2081C87.7529 78.9747 87.6192 77.6175 87.8797 76.3081C88.1402 74.9988 88.783 73.796 89.727 72.852C90.671 71.908 91.8738 71.2651 93.1831 71.0047C94.4925 70.7442 95.8497 70.8779 97.0831 71.3888C98.3165 71.8997 99.3707 72.7649 100.112 73.8749C100.854 74.9849 101.25 76.29 101.25 77.625C101.25 79.4152 100.539 81.1321 99.273 82.398C98.0071 83.6638 96.2902 84.375 94.5 84.375Z" fill="white"/>
</g>
<defs>
<clipPath id="clip0_26_282">
<rect width="108" height="108" fill="white"/>
</clipPath>
</defs>
</svg>
