<svg width="78" height="107" viewBox="0 0 78 107" fill="none" xmlns="http://www.w3.org/2000/svg">
<path d="M77.6999 34.7799C77.4947 33.0717 77.2164 31.3635 76.7988 29.6993C71.6784 9.2157 52.2956 -3.1375 31.3306 0.696754C14.2846 3.80522 0.798654 19.3035 0.0587972 36.6127C-0.351421 46.2533 1.45061 55.5127 5.04001 64.4276C11.6548 80.8716 22.4743 94.2219 35.7404 105.717C37.8355 107.528 40.2675 107.389 42.4651 105.49C51.6583 97.5503 59.6136 88.5328 65.972 78.1517C73.2094 66.3484 77.7145 53.6726 78.0002 39.6698C77.905 38.035 77.8976 36.3927 77.6999 34.7725V34.7799ZM61.5842 49.5597C60.6538 47.9835 59.7162 46.3999 58.7786 44.8237C58.8665 44.7357 58.9617 44.6478 59.0496 44.5671C60.2216 45.4249 61.3937 46.29 62.5658 47.1477C62.2801 47.9762 61.9504 48.7753 61.5842 49.5597ZM27.3969 39.8678C26.9867 40.3077 26.7303 40.359 26.2981 39.8238C25.4703 38.8121 24.5327 37.8957 23.6463 36.9279C23.2654 36.5174 22.9651 36.5174 22.6281 36.9939C22.3717 37.3678 22.0641 37.6977 21.7491 38.0276C19.4416 40.4763 17.1268 42.9249 14.812 45.3662C14.2626 43.3135 13.9696 41.1581 13.9696 38.9367C13.9842 25.0879 25.148 13.9664 39.0222 13.9737C52.7718 13.981 63.9429 25.1832 63.9429 38.944C63.9429 40.9161 63.7158 42.8296 63.2836 44.6624C61.2985 42.8443 59.262 41.0848 57.145 39.4206C55.5334 38.1523 55.5554 38.0716 54.2662 39.7945C53.8706 40.315 53.6289 40.2417 53.2186 39.8385C48.9407 35.667 44.6407 31.5248 40.37 27.346C39.9745 26.9647 39.7547 27.0014 39.4031 27.3679C38.2384 28.5849 37.037 29.7579 35.8723 30.9749C33.0374 33.9294 30.2098 36.8913 27.3896 39.8531L27.3969 39.8678ZM41.4175 63.7897C39.7181 57.6461 37.059 48.4014 36.0774 44.5451C39.3005 45.5202 42.3625 46.4513 45.5564 47.419C44.6993 42.551 43.2416 37.947 42.4431 33.1963C42.5603 33.123 42.6702 33.0424 42.7874 32.969C42.8899 33.1743 42.9705 33.3943 43.1024 33.5702C43.8715 34.5379 44.5821 35.5716 45.4391 36.4367C47.7466 38.7461 50.0981 41.0041 52.4641 43.2402C55.2331 45.8574 58.0314 48.4527 60.815 51.048C56.9399 58.02 49.7977 62.932 41.4175 63.7824V63.7897Z" fill="white"/>
</svg>
