<svg width="32" height="36" viewBox="0 0 32 36" fill="none" xmlns="http://www.w3.org/2000/svg">
<path d="M24 15.631H20V7.81552C20 7.22329 19.7893 6.65532 19.4142 6.23655C19.0391 5.81778 18.5304 5.58252 18 5.58252H4C3.83786 5.58255 3.67815 5.6266 3.53465 5.71087C3.39114 5.79515 3.26814 5.91712 3.17625 6.06627C3.08436 6.21543 3.02634 6.3873 3.00717 6.56706C2.98801 6.74683 3.00828 6.9291 3.06625 7.09817C4.44875 11.1232 4.16125 18.7809 3.03875 23.1381C3.01338 23.2385 3.00035 23.3422 3 23.4465V27.9125C3 28.5048 3.21071 29.0727 3.58579 29.4915C3.96086 29.9103 4.46957 30.1455 5 30.1455H8.26375C8.57444 30.1456 8.88087 30.0648 9.15875 29.9097L10.7362 29.029H12.7638L14.3413 29.9097C14.6191 30.0648 14.9256 30.1456 15.2362 30.1455H18.7638C19.0744 30.1456 19.3809 30.0648 19.6588 29.9097L21.2362 29.029H23.2638L24.8412 29.9097C25.1191 30.0648 25.4256 30.1456 25.7362 30.1455H29C29.5304 30.1455 30.0391 29.9103 30.4142 29.4915C30.7893 29.0727 31 28.5048 31 27.9125V23.4465C30.998 21.3744 30.2599 19.3878 28.9476 17.9226C27.6352 16.4574 25.8559 15.6332 24 15.631ZM5.3575 7.81552H18V11.165H14C13.7348 11.165 13.4804 11.2827 13.2929 11.492C13.1054 11.7014 13 11.9854 13 12.2815C13 12.5776 13.1054 12.8616 13.2929 13.071C13.4804 13.2804 13.7348 13.398 14 13.398H18V15.631H14C13.7348 15.631 13.4804 15.7487 13.2929 15.958C13.1054 16.1674 13 16.4514 13 16.7475C13 17.0436 13.1054 17.3276 13.2929 17.537C13.4804 17.7464 13.7348 17.864 14 17.864H24C25.1522 17.8656 26.2687 18.3107 27.1613 19.1242C28.0539 19.9377 28.6679 21.0699 28.9 22.33H5.28125C6.125 18.0259 6.30125 11.9787 5.3575 7.81552ZM29 27.9125H25.7362L24.1588 27.0319C23.8809 26.8767 23.5744 26.796 23.2638 26.796H21.2362C20.9256 26.796 20.6191 26.8767 20.3412 27.0319L18.7638 27.9125H15.2362L13.6587 27.0319C13.3809 26.8767 13.0744 26.796 12.7638 26.796H10.7362C10.4256 26.796 10.1191 26.8767 9.84125 27.0319L8.26375 27.9125H5V24.563H29V27.9125Z" fill="white"/>
</svg>
