<svg width="32" height="36" viewBox="0 0 32 36" fill="none" xmlns="http://www.w3.org/2000/svg">
<path d="M28 8.93207H22V7.81557C22 6.92722 21.6839 6.07526 21.1213 5.44711C20.5587 4.81896 19.7956 4.46606 19 4.46606H13C12.2044 4.46606 11.4413 4.81896 10.8787 5.44711C10.3161 6.07526 10 6.92722 10 7.81557V8.93207H4C3.46957 8.93207 2.96086 9.16733 2.58579 9.5861C2.21071 10.0049 2 10.5728 2 11.1651V26.7961C2 27.3883 2.21071 27.9563 2.58579 28.375C2.96086 28.7938 3.46957 29.0291 4 29.0291H28C28.5304 29.0291 29.0391 28.7938 29.4142 28.375C29.7893 27.9563 30 27.3883 30 26.7961V11.1651C30 10.5728 29.7893 10.0049 29.4142 9.5861C29.0391 9.16733 28.5304 8.93207 28 8.93207ZM12 7.81557C12 7.51945 12.1054 7.23547 12.2929 7.02608C12.4804 6.8167 12.7348 6.69907 13 6.69907H19C19.2652 6.69907 19.5196 6.8167 19.7071 7.02608C19.8946 7.23547 20 7.51945 20 7.81557V8.93207H12V7.81557ZM28 11.1651V15.6311H24V14.5146C24 14.2185 23.8946 13.9345 23.7071 13.7251C23.5196 13.5157 23.2652 13.3981 23 13.3981C22.7348 13.3981 22.4804 13.5157 22.2929 13.7251C22.1054 13.9345 22 14.2185 22 14.5146V15.6311H10V14.5146C10 14.2185 9.89464 13.9345 9.70711 13.7251C9.51957 13.5157 9.26522 13.3981 9 13.3981C8.73478 13.3981 8.48043 13.5157 8.29289 13.7251C8.10536 13.9345 8 14.2185 8 14.5146V15.6311H4V11.1651H28ZM28 26.7961H4V17.8641H8V18.9806C8 19.2767 8.10536 19.5607 8.29289 19.7701C8.48043 19.9794 8.73478 20.0971 9 20.0971C9.26522 20.0971 9.51957 19.9794 9.70711 19.7701C9.89464 19.5607 10 19.2767 10 18.9806V17.8641H22V18.9806C22 19.2767 22.1054 19.5607 22.2929 19.7701C22.4804 19.9794 22.7348 20.0971 23 20.0971C23.2652 20.0971 23.5196 19.9794 23.7071 19.7701C23.8946 19.5607 24 19.2767 24 18.9806V17.8641H28V26.7961Z" fill="white"/>
</svg>
