<svg width="243" height="32" viewBox="0 0 243 32" fill="none" xmlns="http://www.w3.org/2000/svg">
<g clip-path="url(#clip0_33_143)">
<path d="M0 0.46875H15.498C17.7927 0.46875 19.6914 0.694918 21.2056 1.15277C22.7199 1.61062 23.9139 2.29464 24.7933 3.20483C25.6727 4.12053 26.2901 5.24034 26.6396 6.5808C26.989 7.92126 27.1637 9.46582 27.1637 11.231C27.1637 12.9962 26.9832 14.6236 26.6163 16.0247C26.2493 17.4258 25.6203 18.5953 24.7234 19.5441C23.8265 20.4874 22.6326 21.2045 21.1358 21.6899C19.639 22.1809 17.7636 22.4236 15.5038 22.4236H12.9645V32.0054H0V0.46875ZM13.8556 13.7354C14.4205 13.7354 14.7875 13.592 14.9505 13.3107C15.1136 13.0293 15.201 12.5384 15.201 11.8489C15.201 11.2807 15.1311 10.8725 15.0029 10.6242C14.869 10.3705 14.5195 10.2491 13.9546 10.2491H12.8597V13.7409H13.8556V13.7354Z" fill="white"/>
<path d="M30.5999 0.46875H47.6938L53.9722 31.9999H40.3146L40.2156 24.6853H38.2237L38.1247 31.9999H24.3681L30.5999 0.46875ZM38.3752 16.4219H40.07L39.971 9.86299H38.4742L38.3752 16.4219Z" fill="white"/>
<path d="M56.8143 9.95677H50.6874V0.46875H75.9058V9.95677H69.7788V31.9999H56.8202V9.95677H56.8143Z" fill="white"/>
<path d="M76.8959 0.46875H89.8546V12.1743H92.3473V0.46875H105.306V31.9999H92.3473V21.3314H89.8546V31.9999H76.8959V0.46875Z" fill="white"/>
<path d="M163.862 8.77642C163.198 6.72987 162.219 5.05844 160.921 3.75108C159.628 2.44923 158.032 1.49491 156.139 0.893639C154.24 0.29788 152.085 0 149.657 0C147.228 0 145.073 0.29788 143.174 0.893639C141.282 1.49491 139.686 2.44372 138.387 3.75108C137.094 5.05844 136.11 6.73539 135.452 8.77642C134.788 10.823 134.456 13.3108 134.456 16.2344C134.456 18.6837 134.689 20.824 135.155 22.6554H130.967L130.268 19.5883C131.596 18.6726 132.545 17.4811 133.11 16.0028C133.675 14.5244 133.955 12.7923 133.955 10.8119C133.955 9.14601 133.757 7.66764 133.355 6.37683C132.953 5.08602 132.283 4.00483 131.334 3.12222C130.385 2.23961 129.144 1.58318 127.595 1.13636C126.052 0.695053 124.13 0.474401 121.835 0.474401H106.785V32H120.192L118.847 21.5687H120.495L122.039 32H153.477C154.328 32 155.178 31.8731 155.988 31.6194L156.127 31.5752C158.02 30.9795 159.616 30.0252 160.909 28.7178C161.555 28.0669 162.12 27.3332 162.61 26.5003C163.105 25.6563 163.518 24.724 163.85 23.6925C164.514 21.6459 164.846 19.1581 164.846 16.2344C164.846 13.3108 164.514 10.823 163.85 8.77642H163.862ZM121.252 13.1895C121.089 13.4597 120.722 13.5921 120.158 13.5921H118.911V10.2382H120.257C120.821 10.2382 121.171 10.3651 121.305 10.6189C121.433 10.8726 121.503 11.2808 121.503 11.8435C121.503 12.4723 121.421 12.9247 121.252 13.1895ZM147.991 13.3108C148.038 12.5551 148.119 11.9648 148.236 11.5401C148.352 11.1153 148.527 10.834 148.76 10.6906C148.993 10.5471 149.29 10.481 149.657 10.481C150.024 10.481 150.321 10.5527 150.554 10.6906C150.787 10.834 150.961 11.1153 151.078 11.5401C151.194 11.9648 151.282 12.5551 151.328 13.3108C151.381 14.0665 151.404 15.0429 151.404 16.24C151.404 17.437 151.381 18.4134 151.328 19.1636C151.282 19.9193 151.194 20.5096 151.078 20.9343C150.961 21.3591 150.787 21.6459 150.554 21.7838C150.321 21.9273 150.024 21.9935 149.657 21.9935C149.29 21.9935 148.993 21.9217 148.76 21.7838C148.527 21.6404 148.352 21.3591 148.236 20.9343C148.119 20.5096 148.038 19.9193 147.991 19.1636C147.939 18.4079 147.915 17.437 147.915 16.24C147.915 15.0429 147.939 14.0665 147.991 13.3108Z" fill="white"/>
<path d="M179.261 22.6111L179.61 0.474266H193.268L187.484 32.0054H169.395L163.658 0.46875H177.415L177.764 22.6056H179.261V22.6111Z" fill="white"/>
<path d="M194.007 0.46875H214.59V10.3815H204.974V12.1302H212.796V20.6253H204.974V22.0871H214.59V31.9999H194.007V0.46875Z" fill="white"/>
<path d="M229.546 21.5686H227.904L229.249 31.9999H215.842V0.46875H230.892C233.186 0.46875 235.102 0.689402 236.646 1.1307C238.189 1.57201 239.436 2.23396 240.385 3.11105C241.334 3.99366 242.004 5.08037 242.406 6.36566C242.802 7.65648 243.006 9.13484 243.006 10.8008C243.006 12.7811 242.72 14.5132 242.155 15.9916C241.591 17.47 240.641 18.667 239.313 19.5772L240.012 22.6442H242.901V31.9888H231.09L229.546 21.5575V21.5686ZM229.197 13.592C229.762 13.592 230.129 13.4596 230.292 13.1893C230.461 12.9245 230.542 12.4722 230.542 11.8433C230.542 11.2752 230.478 10.867 230.344 10.6187C230.21 10.365 229.861 10.2436 229.296 10.2436H227.95V13.5975H229.197V13.592Z" fill="white"/>
</g>
<defs>
<clipPath id="clip0_33_143">
<rect width="243" height="32" fill="white"/>
</clipPath>
</defs>
</svg>
