<svg width="146" height="19" viewBox="0 0 146 19" fill="none" xmlns="http://www.w3.org/2000/svg">
<g clip-path="url(#clip0_14_20)">
<path d="M0 0.278397H9.31156C10.6903 0.278397 11.831 0.412684 12.7408 0.684533C13.6506 0.956383 14.368 1.36252 14.8964 1.90294C15.4248 2.44664 15.7957 3.11153 16.0057 3.90743C16.2156 4.70332 16.3206 5.62041 16.3206 6.6685C16.3206 7.7166 16.2121 8.68281 15.9917 9.51474C15.7712 10.3467 15.3933 11.041 14.8544 11.6044C14.3155 12.1645 13.5982 12.5902 12.6988 12.8785C11.7995 13.17 10.6728 13.3141 9.31505 13.3141H7.78937V19.0033H0V0.278397ZM8.32476 8.15549C8.66419 8.15549 8.88464 8.07033 8.98262 7.90329C9.0806 7.73625 9.13309 7.44475 9.13309 7.03534C9.13309 6.69798 9.0911 6.45561 9.01412 6.30822C8.93363 6.15756 8.72368 6.0855 8.38425 6.0855H7.72639V8.15876H8.32476V8.15549Z" fill="white"/>
<path d="M18.3852 0.278397H28.6555L32.4277 19H24.2219L24.1625 14.657H22.9657L22.9062 19H14.6409L18.3852 0.278397ZM23.0567 9.75056H24.075L24.0155 5.85623H23.1162L23.0567 9.75056Z" fill="white"/>
<path d="M34.1354 5.91191H30.4541V0.278397H45.606V5.91191H41.9247V19H34.1389V5.91191H34.1354Z" fill="white"/>
<path d="M46.2008 0.278397H53.9867V7.22858H55.4844V0.278397H63.2703V19H55.4844V12.6656H53.9867V19H46.2008V0.278397Z" fill="white"/>
<path d="M98.4519 5.211C98.053 3.99586 97.4651 3.00345 96.6848 2.2272C95.9079 1.45423 94.9492 0.887606 93.8119 0.530598C92.6711 0.176866 91.3764 0 89.9172 0C88.458 0 87.1633 0.176866 86.0225 0.530598C84.8853 0.887606 83.9265 1.45096 83.1461 2.2272C82.3693 3.00345 81.7779 3.99914 81.3825 5.211C80.9836 6.42613 80.7841 7.90329 80.7841 9.6392C80.7841 11.0934 80.9241 12.3642 81.204 13.4516H78.688L78.2681 11.6306C79.066 11.0869 79.6364 10.3794 79.9758 9.50164C80.3152 8.62386 80.4832 7.59542 80.4832 6.41958C80.4832 5.43044 80.3642 4.55266 80.1228 3.78624C79.8813 3.01982 79.4789 2.37787 78.9085 1.85382C78.3381 1.32977 77.5928 0.94001 76.662 0.674711C75.7347 0.412687 74.5799 0.281676 73.2012 0.281676H64.1591V19H72.2144L71.4061 12.8064H72.3964L73.3237 19H92.2127C92.7236 19 93.2345 18.9247 93.7209 18.774L93.8049 18.7478C94.9422 18.3941 95.901 17.8274 96.6778 17.0512C97.0662 16.6647 97.4056 16.2291 97.6996 15.7345C97.997 15.2334 98.2455 14.6799 98.4449 14.0674C98.8438 12.8523 99.0433 11.3751 99.0433 9.6392C99.0433 7.90329 98.8438 6.42613 98.4449 5.211H98.4519ZM72.8513 7.83124C72.7533 7.99173 72.5328 8.07033 72.1934 8.07033H71.4446V6.07895H72.2529C72.5923 6.07895 72.8023 6.15428 72.8828 6.30495C72.9597 6.45561 73.0017 6.69798 73.0017 7.03206C73.0017 7.40545 72.9527 7.67402 72.8513 7.83124ZM88.9164 7.90329C88.9444 7.45458 88.9934 7.10412 89.0634 6.85192C89.1334 6.59972 89.2383 6.43268 89.3783 6.34753C89.5183 6.26237 89.6967 6.22307 89.9172 6.22307C90.1377 6.22307 90.3161 6.26564 90.4561 6.34753C90.5961 6.43268 90.701 6.59972 90.771 6.85192C90.841 7.10412 90.8935 7.45458 90.9215 7.90329C90.953 8.35201 90.967 8.93174 90.967 9.64248C90.967 10.3532 90.953 10.9329 90.9215 11.3784C90.8935 11.8271 90.841 12.1776 90.771 12.4298C90.701 12.682 90.5961 12.8523 90.4561 12.9342C90.3161 13.0193 90.1377 13.0586 89.9172 13.0586C89.6967 13.0586 89.5183 13.016 89.3783 12.9342C89.2383 12.849 89.1334 12.682 89.0634 12.4298C88.9934 12.1776 88.9444 11.8271 88.9164 11.3784C88.8849 10.9297 88.8709 10.3532 88.8709 9.64248C88.8709 8.93174 88.8849 8.35201 88.9164 7.90329Z" fill="white"/>
<path d="M107.704 13.4254L107.914 0.281672H116.12L112.645 19.0033H101.776L98.3295 0.278397H106.595L106.805 13.4222H107.704V13.4254Z" fill="white"/>
<path d="M116.564 0.278397H128.931V6.16411H123.153V7.20237H127.853V12.2463H123.153V13.1143H128.931V19H116.564V0.278397Z" fill="white"/>
<path d="M137.917 12.8064H136.93L137.738 19H129.683V0.278397H138.725C140.104 0.278397 141.255 0.409408 142.182 0.671432C143.11 0.933456 143.858 1.32649 144.429 1.84726C144.999 2.37131 145.402 3.01655 145.643 3.77969C145.881 4.54611 146.004 5.42389 146.004 6.41303C146.004 7.58886 145.832 8.6173 145.493 9.49508C145.153 10.3729 144.583 11.0836 143.785 11.624L144.205 13.4451H145.941V18.9934H138.844L137.917 12.7999V12.8064ZM137.707 8.07033C138.046 8.07033 138.267 7.99172 138.365 7.83123C138.466 7.67402 138.515 7.40544 138.515 7.03206C138.515 6.6947 138.477 6.45233 138.396 6.30494C138.316 6.15428 138.106 6.08222 137.766 6.08222H136.958V8.0736H137.707V8.07033Z" fill="white"/>
</g>
<defs>
<clipPath id="clip0_14_20">
<rect width="146" height="19" fill="white"/>
</clipPath>
</defs>
</svg>
